<svg width="29" height="29" viewBox="0 0 29 29" fill="none" xmlns="http://www.w3.org/2000/svg">
<path d="M14.3331 22.3335V5.00018M14.3331 22.3335C14.3339 23.0625 14.4841 23.7836 14.7745 24.4523C15.0649 25.1209 15.4892 25.723 16.0214 26.2212C16.5536 26.7194 17.1823 27.1032 17.8686 27.349C18.5549 27.5947 19.2843 27.6972 20.0118 27.65C20.7393 27.6027 21.4493 27.4069 22.0981 27.0745C22.747 26.7421 23.3207 26.2803 23.7841 25.7174C24.2474 25.1546 24.5904 24.5028 24.7919 23.8022C24.9934 23.1016 25.0492 22.3672 24.9558 21.6442M14.3331 22.3335C14.3323 23.0625 14.1821 23.7836 13.8917 24.4523C13.6013 25.1209 13.177 25.723 12.6448 26.2212C12.1126 26.7194 11.4839 27.1032 10.7976 27.349C10.1113 27.5947 9.38187 27.6972 8.6544 27.65C7.92694 27.6027 7.21687 27.4069 6.56806 27.0745C5.91925 26.7421 5.34546 26.2803 4.88215 25.7174C4.41883 25.1546 4.07581 24.5028 3.87428 23.8022C3.67275 23.1016 3.61699 22.3672 3.71043 21.6442M14.3331 5.00018C14.3331 4.38661 14.4742 3.78126 14.7456 3.23096C15.0169 2.68066 15.4112 2.20016 15.898 1.82664C16.3848 1.45311 16.9509 1.19657 17.5527 1.07687C18.1545 0.95716 18.7757 0.977496 19.3684 1.1363C19.961 1.29511 20.5092 1.58812 20.9705 1.99268C21.4318 2.39724 21.7939 2.9025 22.0287 3.46937C22.2634 4.03623 22.3647 4.64952 22.3245 5.26177C22.2844 5.87402 22.1039 6.46883 21.7971 7.00018M14.3331 5.00018C14.3331 4.38661 14.192 3.78126 13.9206 3.23096C13.6493 2.68066 13.255 2.20016 12.7682 1.82664C12.2814 1.45311 11.7153 1.19657 11.1135 1.07687C10.5117 0.95716 9.89047 0.977496 9.29781 1.1363C8.70515 1.29511 8.15697 1.58812 7.69567 1.99268C7.23437 2.39724 6.87233 2.9025 6.63754 3.46937C6.40275 4.03623 6.30152 4.64952 6.34168 5.26177C6.38183 5.87402 6.56229 6.46883 6.8691 7.00018M18.3331 15.6668C17.1795 15.3296 16.1662 14.6277 15.4451 13.6662C14.724 12.7047 14.3338 11.5354 14.3331 10.3335C14.3324 11.5354 13.9422 12.7047 13.2211 13.6662C12.5 14.6277 11.4867 15.3296 10.3331 15.6668M22.3291 5.16684C23.1128 5.36836 23.8404 5.74558 24.4568 6.26993C25.0732 6.79427 25.5621 7.45201 25.8866 8.19331C26.2112 8.93461 26.3628 9.74004 26.3299 10.5486C26.2971 11.3572 26.0807 12.1476 25.6971 12.8602M22.3331 22.3335C23.5071 22.3335 24.6483 21.946 25.5797 21.2313C26.5111 20.5166 27.1806 19.5146 27.4845 18.3806C27.7883 17.2466 27.7095 16.044 27.2603 14.9593C26.811 13.8747 26.0165 12.9686 24.9998 12.3815M6.3331 22.3335C5.15909 22.3335 4.01791 21.946 3.08652 21.2313C2.15513 20.5166 1.48559 19.5146 1.18174 18.3806C0.877877 17.2466 0.956679 16.044 1.40592 14.9593C1.85517 13.8747 2.64974 12.9686 3.66643 12.3815M6.3371 5.16684C5.55337 5.36836 4.82577 5.74558 4.20941 6.26993C3.59305 6.79427 3.10409 7.45201 2.77956 8.19331C2.45503 8.93461 2.30345 9.74004 2.33629 10.5486C2.36913 11.3572 2.58553 12.1476 2.9691 12.8602" stroke="#188734" stroke-width="2" stroke-linecap="round" stroke-linejoin="round"/>
</svg>
