<svg width="28" height="28" viewBox="0 0 28 28" fill="none" xmlns="http://www.w3.org/2000/svg">
<path d="M1 26.3333C1 22.3333 3.46667 19.1867 7.77333 18.3333C11 17.6933 14.3333 15.6667 15.6667 14.3333M13 25C10.6587 25.0071 8.40034 24.134 6.67269 22.5539C4.94504 20.9738 3.87435 18.8021 3.67298 16.4695C3.47161 14.1369 4.15425 11.8138 5.58553 9.96099C7.01681 8.10816 9.09217 6.86093 11.4 6.46667C19 5 21 4.30667 23.6667 1C25 3.66667 26.3333 6.57333 26.3333 11.6667C26.3333 19 19.96 25 13 25Z" stroke="#188734" stroke-width="2" stroke-linecap="round" stroke-linejoin="round"/>
</svg>
