<svg width="29" height="24" viewBox="0 0 29 24" fill="none" xmlns="http://www.w3.org/2000/svg">
<path d="M15.4 21.8C15.738 22.0535 16.1315 22.2231 16.5479 22.2947C16.9643 22.3664 17.3918 22.338 17.7951 22.212C18.1984 22.086 18.566 21.866 18.8676 21.5701C19.1692 21.2742 19.3962 20.9108 19.5298 20.5099C19.6634 20.1091 19.6999 19.6822 19.6362 19.2645C19.5724 18.8468 19.4104 18.4502 19.1633 18.1074C18.9162 17.7647 18.5913 17.4855 18.2151 17.293C17.839 17.1004 17.4225 17 17 17H1M21.6667 6.33333C22.0076 5.87878 22.459 5.51892 22.9781 5.28792C23.4972 5.05692 24.0668 4.96244 24.6327 5.01347C25.1986 5.0645 25.742 5.25933 26.2114 5.57947C26.6809 5.8996 27.0607 6.33442 27.3148 6.84262C27.5689 7.35082 27.6888 7.91555 27.6633 8.48316C27.6378 9.05078 27.4675 9.60244 27.1688 10.0858C26.8701 10.5691 26.4528 10.9681 25.9565 11.2447C25.4603 11.5214 24.9015 11.6667 24.3333 11.6667H1M11.4 1.53333C11.738 1.27981 12.1315 1.11024 12.5479 1.03861C12.9643 0.966968 13.3918 0.99531 13.7951 1.1213C14.1984 1.24728 14.566 1.46731 14.8676 1.76324C15.1692 2.05917 15.3962 2.42254 15.5298 2.82339C15.6634 3.22425 15.6999 3.65112 15.6362 4.06882C15.5724 4.48653 15.4104 4.88311 15.1633 5.22589C14.9162 5.56868 14.5913 5.84784 14.2151 6.04038C13.839 6.23293 13.4225 6.33333 13 6.33333H1" stroke="#188734" stroke-width="2" stroke-linecap="round" stroke-linejoin="round"/>
</svg>
